<svg width="200" height="200" viewBox="0 0 200 200" fill="none" xmlns="http://www.w3.org/2000/svg">
<g filter="url(#filter0_d_17_67)">
<path fill-rule="evenodd" clip-rule="evenodd" d="M99.8827 191.899C46.9875 191.899 4.10745 149.019 4.10745 96.1234C4.10745 43.2282 46.9875 0.348175 99.8827 0.348175C152.778 0.348175 195.658 43.2282 195.658 96.1234C195.658 149.019 152.778 191.899 99.8827 191.899ZM99.8827 12.1101C53.4834 12.1101 15.8693 49.7241 15.8693 96.1234C15.8693 142.523 53.4834 180.137 99.8827 180.137C146.282 180.137 183.896 142.523 183.896 96.1234C183.896 49.7241 146.282 12.1101 99.8827 12.1101Z" fill="white"/>
<path d="M88.5079 108.036C81.9288 101.754 81.6881 91.3277 87.9703 84.7487V84.7487C94.2524 78.1696 104.678 77.9289 111.257 84.2111V84.2111C117.837 90.4932 118.077 100.919 111.795 107.498V107.498C105.513 114.077 95.0869 114.318 88.5079 108.036V108.036Z" fill="white"/>
<path d="M58.6045 59.1482C57.7247 57.5623 59.4171 55.79 61.0418 56.5956L84.8525 68.4022C85.969 68.9558 86.2289 70.4332 85.3682 71.3345L74.4503 82.7684C73.5896 83.6698 72.1018 83.4784 71.4973 82.3886L58.6045 59.1482Z" fill="white"/>
<path d="M88.5079 108.036C95.0869 114.318 105.513 114.077 111.795 107.498V107.498C118.077 100.919 117.837 90.4932 111.257 84.211V84.211C104.678 77.9289 94.2524 78.1696 87.9703 84.7487V84.7487C81.6881 91.3277 81.9288 101.754 88.5079 108.036V108.036Z" fill="white"/>
<path d="M138.723 135.651C140.348 136.457 142.041 134.685 141.161 133.099L128.268 109.858C127.663 108.768 126.176 108.577 125.315 109.478L114.397 120.912C113.536 121.814 113.796 123.291 114.913 123.845L138.723 135.651Z" fill="white"/>
</g>
<defs>
<filter id="filter0_d_17_67" x="0.107452" y="0.348175" width="199.551" height="199.551" filterUnits="userSpaceOnUse" color-interpolation-filters="sRGB">
<feFlood flood-opacity="0" result="BackgroundImageFix"/>
<feColorMatrix in="SourceAlpha" type="matrix" values="0 0 0 0 0 0 0 0 0 0 0 0 0 0 0 0 0 0 127 0" result="hardAlpha"/>
<feOffset dy="4"/>
<feGaussianBlur stdDeviation="2"/>
<feComposite in2="hardAlpha" operator="out"/>
<feColorMatrix type="matrix" values="0 0 0 0 0 0 0 0 0 0 0 0 0 0 0 0 0 0 0.25 0"/>
<feBlend mode="normal" in2="BackgroundImageFix" result="effect1_dropShadow_17_67"/>
<feBlend mode="normal" in="SourceGraphic" in2="effect1_dropShadow_17_67" result="shape"/>
</filter>
</defs>
</svg>
