<svg width="74" height="165" viewBox="0 0 74 165" fill="none" xmlns="http://www.w3.org/2000/svg">
<g filter="url(#filter0_d_1_14)">
<path fill-rule="evenodd" clip-rule="evenodd" d="M17.5659 87.9416V19.8884C17.5659 9.12442 26.2918 0.398529 37.0558 0.398529C47.8197 0.398529 56.5456 9.12443 56.5456 19.8884V87.9416C56.5456 90.4568 57.4168 93.2498 59.2981 96.9098C60.2318 98.7264 61.3094 100.565 62.5323 102.63C62.6097 102.76 62.6878 102.892 62.7665 103.025C63.8847 104.912 65.1281 107.01 66.2554 109.142C68.6406 113.653 69.9891 118.786 69.9891 124.209C69.9891 142.326 55.1068 156.766 37.0557 156.766C19.0046 156.766 4.12238 142.326 4.12238 124.209C4.12238 118.786 5.47082 113.653 7.85606 109.142C8.98338 107.01 10.2268 104.912 11.345 103.025C11.4237 102.892 11.5018 102.76 11.5791 102.629C12.802 100.565 13.8797 98.7263 14.8134 96.9097C16.6947 93.2497 17.5659 90.4568 17.5659 87.9416ZM37.0558 9.50542C42.7901 9.50542 47.4387 14.154 47.4387 19.8884V87.9416C47.4387 95.0199 51.2002 101.369 54.906 107.624C56.0481 109.552 57.185 111.47 58.2048 113.399C59.9154 116.634 60.8822 120.31 60.8822 124.209C60.8822 137.16 50.2147 147.659 37.0557 147.659C23.8967 147.659 13.2293 137.16 13.2293 124.209C13.2293 120.31 14.1961 116.634 15.9067 113.399C16.9265 111.47 18.0633 109.552 19.2055 107.624C22.9113 101.369 26.6728 95.0198 26.6728 87.9416V19.8884C26.6728 14.154 31.3214 9.50542 37.0558 9.50542Z" fill="white"/>
<path d="M30.1835 80.9557C30.1835 79.6448 31.2462 78.5821 32.5572 78.5821H41.5672C42.8781 78.5821 43.9408 79.6448 43.9408 80.9557V80.9557C43.9408 82.2666 42.8781 83.3293 41.5672 83.3293H32.5572C31.2462 83.3293 30.1835 82.2666 30.1835 80.9557V80.9557Z" fill="white"/>
<path d="M30.1835 71.4613C30.1835 70.1504 31.2462 69.0877 32.5572 69.0877H41.5672C42.8781 69.0877 43.9408 70.1504 43.9408 71.4613V71.4613C43.9408 72.7722 42.8781 73.8349 41.5672 73.8349H32.5572C31.2462 73.8349 30.1835 72.7722 30.1835 71.4613V71.4613Z" fill="white"/>
<path d="M30.1835 61.5794C30.1835 60.2685 31.2462 59.2058 32.5572 59.2058H41.5672C42.8781 59.2058 43.9408 60.2685 43.9408 61.5794V61.5794C43.9408 62.8903 42.8781 63.953 41.5672 63.953H32.5572C31.2462 63.953 30.1835 62.8903 30.1835 61.5794V61.5794Z" fill="white"/>
</g>
<defs>
<filter id="filter0_d_1_14" x="0.122375" y="0.398529" width="73.8667" height="164.367" filterUnits="userSpaceOnUse" color-interpolation-filters="sRGB">
<feFlood flood-opacity="0" result="BackgroundImageFix"/>
<feColorMatrix in="SourceAlpha" type="matrix" values="0 0 0 0 0 0 0 0 0 0 0 0 0 0 0 0 0 0 127 0" result="hardAlpha"/>
<feOffset dy="4"/>
<feGaussianBlur stdDeviation="2"/>
<feComposite in2="hardAlpha" operator="out"/>
<feColorMatrix type="matrix" values="0 0 0 0 0 0 0 0 0 0 0 0 0 0 0 0 0 0 0.25 0"/>
<feBlend mode="normal" in2="BackgroundImageFix" result="effect1_dropShadow_1_14"/>
<feBlend mode="normal" in="SourceGraphic" in2="effect1_dropShadow_1_14" result="shape"/>
</filter>
</defs>
</svg>
